/* XPM */
static char * aaxconfig_xpm[] = {
"48 48 430 2",
"  	c None",
". 	c #737373",
"+ 	c #BCC0BC",
"@ 	c #BABCBA",
"# 	c #BDBDBD",
"$ 	c #B8B9B8",
"% 	c #051105",
"& 	c #4E4C4B",
"* 	c #1F1919",
"= 	c #241B1C",
"- 	c #221A1A",
"; 	c #0B0505",
"> 	c #000000",
", 	c #0F0D0D",
"' 	c #424141",
") 	c #999199",
"! 	c #3BD23B",
"~ 	c #2FCE2F",
"{ 	c #E8E6E8",
"] 	c #F8E8F8",
"^ 	c #38CE38",
"/ 	c #01DA01",
"( 	c #423D3D",
"_ 	c #352B2B",
": 	c #0C0F0F",
"< 	c #1D2220",
"[ 	c #616B67",
"} 	c #73817A",
"| 	c #111010",
"1 	c #333333",
"2 	c #9C949C",
"3 	c #1FCE1F",
"4 	c #68D568",
"5 	c #BBE0BB",
"6 	c #1ECB1E",
"7 	c #1CC91C",
"8 	c #051505",
"9 	c #575555",
"0 	c #322828",
"a 	c #0F1010",
"b 	c #1F2221",
"c 	c #101010",
"d 	c #0C0A0C",
"e 	c #262B28",
"f 	c #303030",
"g 	c #879087",
"h 	c #00C700",
"i 	c #55D255",
"j 	c #63D463",
"k 	c #EDE2ED",
"l 	c #0A0A0A",
"m 	c #504F4E",
"n 	c #0E0F0F",
"o 	c #181918",
"p 	c #373B38",
"q 	c #353B37",
"r 	c #0D0C0C",
"s 	c #2F302F",
"t 	c #00B000",
"u 	c #00C500",
"v 	c #36CE36",
"w 	c #D1E2D1",
"x 	c #E7E5E7",
"y 	c #E0E0E0",
"z 	c #6D6C6C",
"A 	c #312929",
"B 	c #0D0E0E",
"C 	c #040303",
"D 	c #4C5250",
"E 	c #666E69",
"F 	c #232323",
"G 	c #748174",
"H 	c #C4D6C4",
"I 	c #E0D7E0",
"J 	c #D6D6D6",
"K 	c #D1D1D1",
"L 	c #060606",
"M 	c #6E6E6D",
"N 	c #302929",
"O 	c #030203",
"P 	c #69706B",
"Q 	c #7B837E",
"R 	c #050405",
"S 	c #1D1D1D",
"T 	c #393939",
"U 	c #767574",
"V 	c #2E2424",
"W 	c #1F2120",
"X 	c #636C67",
"Y 	c #6B7671",
"Z 	c #0F0D0E",
"` 	c #261E1E",
" .	c #0D100E",
"..	c #CFDED9",
"+.	c #404844",
"@.	c #1E2120",
"#.	c #5A625E",
"$.	c #9CADA4",
"%.	c #211A1A",
"&.	c #6C7872",
"*.	c #48504C",
"=.	c #0D0D0D",
"-.	c #606B66",
";.	c #181010",
">.	c #717D78",
",.	c #181818",
"'.	c #121212",
").	c #120F10",
"!.	c #4D5450",
"~.	c #6C6C6C",
"{.	c #B3B2B3",
"].	c #B0AFB0",
"^.	c #AFAFAF",
"/.	c #ABABAB",
"(.	c #090609",
"_.	c #170F10",
":.	c #3B413F",
"<.	c #3F4642",
"[.	c #1E1E1E",
"}.	c #0A0809",
"|.	c #8E9E96",
"1.	c #989298",
"2.	c #4AD54A",
"3.	c #42D142",
"4.	c #E9E7E9",
"5.	c #F9E9F9",
"6.	c #52D252",
"7.	c #01E001",
"8.	c #0D0707",
"9.	c #191D1B",
"0.	c #B1C4BA",
"a.	c #2A2F2D",
"b.	c #403A31",
"c.	c #818F89",
"d.	c #2EB329",
"e.	c #5ED45E",
"f.	c #CAE2CA",
"g.	c #2ECD2E",
"h.	c #12C912",
"i.	c #031A03",
"j.	c #7E8983",
"k.	c #282A29",
"l.	c #3B3738",
"m.	c #020202",
"n.	c #181C1A",
"o.	c #080D0B",
"p.	c #424142",
"q.	c #959095",
"r.	c #00C800",
"s.	c #60D360",
"t.	c #50D250",
"u.	c #E7E1E7",
"v.	c #00AD00",
"w.	c #28CC28",
"x.	c #BDE0BD",
"y.	c #EBE6EB",
"z.	c #728372",
"A.	c #C0DAC0",
"B.	c #E7DCE7",
"C.	c #DBDBDB",
"D.	c #070707",
"E.	c #383838",
"F.	c #A09C9B",
"G.	c #1F1A1A",
"H.	c #221818",
"I.	c #2C2323",
"J.	c #231818",
"K.	c #1A1111",
"L.	c #2D2B2B",
"M.	c #7C7675",
"N.	c #ADA7A8",
"O.	c #0C0B0C",
"P.	c #261B1B",
"Q.	c #2E2525",
"R.	c #322929",
"S.	c #2F2525",
"T.	c #271C1C",
"U.	c #1C1C1C",
"V.	c #616161",
"W.	c #9D9E9E",
"X.	c #9B9B9B",
"Y.	c #9A9A9A",
"Z.	c #9EA0A0",
"`.	c #500F0F",
" +	c #251818",
".+	c #3F3232",
"++	c #3C3131",
"@+	c #382C2C",
"#+	c #312828",
"$+	c #332929",
"%+	c #342B2B",
"&+	c #372E2E",
"*+	c #1F1414",
"=+	c #908383",
"-+	c #E46363",
";+	c #E16B6B",
">+	c #E7E0E0",
",+	c #E6C0C0",
"'+	c #DC0808",
")+	c #7D0000",
"!+	c #3F3131",
"~+	c #443737",
"{+	c #433636",
"]+	c #483838",
"^+	c #3B2F2F",
"/+	c #342A2A",
"(+	c #362B2B",
"_+	c #362C2C",
":+	c #211616",
"<+	c #8E8181",
"[+	c #DD2020",
"}+	c #D80000",
"|+	c #DE6161",
"1+	c #DA7A7A",
"2+	c #090B0B",
"3+	c #302222",
"4+	c #443636",
"5+	c #413636",
"6+	c #423636",
"7+	c #433434",
"8+	c #332828",
"9+	c #251A1A",
"0+	c #8F8F8F",
"a+	c #E6C9C9",
"b+	c #DE5E5E",
"c+	c #D91111",
"d+	c #DEBDBD",
"e+	c #060909",
"f+	c #241313",
"g+	c #443535",
"h+	c #342828",
"i+	c #342C2C",
"j+	c #281E1E",
"k+	c #B02E2E",
"l+	c #DA1010",
"m+	c #E2ACAC",
"n+	c #E6EEEE",
"o+	c #DD5C5C",
"p+	c #DB1F1F",
"q+	c #4B0202",
"r+	c #211212",
"s+	c #443838",
"t+	c #433535",
"u+	c #2B2020",
"v+	c #BD3131",
"w+	c #DFE2E2",
"x+	c #DEDEDE",
"y+	c #DFE3E3",
"z+	c #DAE4E4",
"A+	c #2E2626",
"B+	c #453636",
"C+	c #332A2A",
"D+	c #352C2C",
"E+	c #989392",
"F+	c #030303",
"G+	c #353535",
"H+	c #252525",
"I+	c #453737",
"J+	c #473838",
"K+	c #9C9796",
"L+	c #5A4E4F",
"M+	c #433737",
"N+	c #463838",
"O+	c #7D7777",
"P+	c #6F6766",
"Q+	c #3D2F2F",
"R+	c #4A3E3E",
"S+	c #BEBDBD",
"T+	c #B6B6B6",
"U+	c #B6B5B5",
"V+	c #B9B9B9",
"W+	c #BCBCBC",
"X+	c #534848",
"Y+	c #423535",
"Z+	c #A8A29F",
"`+	c #352929",
" @	c #A5A0A0",
".@	c #F4F4F4",
"+@	c #F5F5F5",
"@@	c #F6F6F6",
"#@	c #F7F7F7",
"$@	c #E7E6E6",
"%@	c #D3D1CF",
"&@	c #332626",
"*@	c #A39E9E",
"=@	c #F0F0F0",
"-@	c #E3D9D3",
";@	c #C6CAD0",
">@	c #F2F1F1",
",@	c #F4F4F5",
"'@	c #F4F3F3",
")@	c #DBD4D3",
"!@	c #FAFBFA",
"~@	c #BCAFB1",
"{@	c #F3F5F6",
"]@	c #F5F5F4",
"^@	c #F2F6F5",
"/@	c #D7DADA",
"(@	c #F1F1F1",
"_@	c #F2F2F2",
":@	c #F3F3F3",
"<@	c #EFEFEF",
"[@	c #E9E8E8",
"}@	c #3E3434",
"|@	c #A09B9B",
"1@	c #E9E8E5",
"2@	c #5F88A1",
"3@	c #CBCED7",
"4@	c #E8E2D0",
"5@	c #8F8E91",
"6@	c #DBE5EE",
"7@	c #BDB09E",
"8@	c #ABB9C8",
"9@	c #997972",
"0@	c #9BAAAF",
"a@	c #B0A2A4",
"b@	c #D2C5BD",
"c@	c #969EA4",
"d@	c #EFF2EF",
"e@	c #C5C9C9",
"f@	c #EBEAEA",
"g@	c #EBEBEB",
"h@	c #DADADA",
"i@	c #CFCFCF",
"j@	c #E8E7E7",
"k@	c #413535",
"l@	c #3D3131",
"m@	c #9F9A9A",
"n@	c #E5E5E5",
"o@	c #D9D9D4",
"p@	c #6D7480",
"q@	c #E0D7A9",
"r@	c #D9E0E4",
"s@	c #97969E",
"t@	c #9C826B",
"u@	c #37323F",
"v@	c #907E7A",
"w@	c #F5FAF7",
"x@	c #583337",
"y@	c #BAA89C",
"z@	c #403F48",
"A@	c #D2EEF2",
"B@	c #C2C5C5",
"C@	c #E5E4E4",
"D@	c #D3D3D3",
"E@	c #D2D2D2",
"F@	c #E7E7E7",
"G@	c #443434",
"H@	c #403535",
"I@	c #3D3030",
"J@	c #9C9797",
"K@	c #E1E0E0",
"L@	c #98918C",
"M@	c #737782",
"N@	c #D4CDA4",
"O@	c #828385",
"P@	c #A6AEAB",
"Q@	c #6F6C6F",
"R@	c #64524D",
"S@	c #B9A896",
"T@	c #89979F",
"U@	c #533035",
"V@	c #87919C",
"W@	c #7D797D",
"X@	c #CCE4EA",
"Y@	c #939DAA",
"Z@	c #E4E2E0",
"`@	c #DFDFDF",
" #	c #DDDDDD",
".#	c #E1E1E1",
"+#	c #E2E1E1",
"@#	c #3C2F2F",
"##	c #9A9696",
"$#	c #E3E4E5",
"%#	c #E2E1E3",
"&#	c #D1CBA7",
"*#	c #D9DDE1",
"=#	c #DCDBDA",
"-#	c #DFE0E2",
";#	c #E4E3E2",
">#	c #DADBDC",
",#	c #E2E4E3",
"'#	c #DDDEDF",
")#	c #E4E4E4",
"!#	c #DBDADA",
"~#	c #E1E0DE",
"{#	c #DCDCDC",
"]#	c #B5B5B5",
"^#	c #E0DFDF",
"/#	c #453939",
"(#	c #3F3130",
"_#	c #979393",
":#	c #EEEEEE",
"<#	c #EDEDED",
"[#	c #ACACAC",
"}#	c #473A3A",
"|#	c #493C3C",
"1#	c #403434",
"2#	c #3F3434",
"3#	c #3F3333",
"4#	c #322A2A",
"5#	c #181515",
"6#	c #483B3B",
"7#	c #060202",
"8#	c #C7C2C1",
"9#	c #4D3F3F",
"0#	c #3C2D2D",
"a#	c #030000",
"b#	c #9B9694",
"c#	c #7F7677",
"d#	c #1F1616",
"e#	c #3B2D2D",
"f#	c #463939",
"g#	c #312727",
"h#	c #362D2D",
"i#	c #261C1D",
"j#	c #382F2F",
"k#	c #756E6D",
"l#	c #413537",
"m#	c #3B2E2E",
"n#	c #3B2E2D",
"o#	c #423434",
"p#	c #302727",
"q#	c #2B2322",
"r#	c #474747",
"s#	c #948E8D",
"t#	c #322425",
"u#	c #302121",
"v#	c #1A1011",
"w#	c #3D3334",
"                                                                                                ",
"                                                                                                ",
"                                                                                                ",
"                                                                                                ",
"                                          . + @ # # $ %                                         ",
"            & * = - ; > , '               ) ! ~ { ] ^ /             ' , > ; - = * &             ",
"            ( _ : < [ } | 1               2 3 4 5 6 7 8             1 | } [ < : _ (             ",
"            9 0 a b c d e f               g h i h j k l             f e d c b a 0 9             ",
"            m 0 n o p q r s               t u v w x y l             s r q p o n 0 m             ",
"            z A B C D E l F               G H I J J K L             F l E D C B A z             ",
"            M N B O P Q R S               L > > > > > T             S R Q P O B N M             ",
"            U V L > W X Y Z                                         Z Y X W > L V U             ",
"              `  ...+.@.#.$.                                        $.#.@.+... .`               ",
"              %.&.*.L =.> -.                                        -.> =.L *.&.%.              ",
"              ;.>.W ,.'.).!.              ~.{.].^.^./.(.            !.).'.,.W >.;.              ",
"              _.:.<.=.[.}.|.              1.2.3.4.5.6.7.            |.}.[.=.<.:._.              ",
"              8.9.0.a.b.c.&.              2 d.e.f.g.h.i.            &.j.k.a.0.9.8.              ",
"              l.m.n.o.O '.p.              q.r.s.h t.u.l             p.'.O o.n.m.l.              ",
"                                          v.u w.x.y.y l                                         ",
"                                          z.A.B.C.C.J D.                                        ",
"                                          l > > > > > E.                                        ",
"                                                                                                ",
"                                                                                                ",
"        F.G.H.I.J.K.L.M.                                                M.L.K.J.I.H.G.F.        ",
"  N.O.P.Q.R.R.R.R.R.0 S.A T.U.            V.W.X.X.Y.Z.`.          U.T.A S.0 R.R.R.R.R.Q.P.O.N.  ",
"   +.+++@+0 #+$+_ %+%+_ %+&+*+            =+-+;+>+,+'+)+          *+&+%+_ %+%+_ $+#+0 @+++.+ +  ",
"  !+~+~+{+]+{+^+/+_ (+_ _ _+:+            <+[+}+|+}+1+2+          :+_+_ _ (+_ /+^+{+]+{+~+~+!+  ",
"  3+4+{+5+6+4+4+7+8+_ _ _ _+9+            0+a+}+b+c+d+e+          9+_+_ _ _ 8+7+4+4+6+5+{+4+3+  ",
"  f+~+{+{+{+{+{+g+h+i+_ _ _+j+            k+l+m+n+o+p+q+          j+_+_ _ i+h+g+{+{+{+{+{+~+f+  ",
"  r+s+t+{+6+{+4+~+$+i+_ _ _+u+            v+w+x+x+y+z+e+          u+_+_ _ i+$+~+4+{+6+{+t+s+r+  ",
"  A+4+{+{+{+6+{+B+C+D+_ _ _ S.E+          c F+F+F+F+m.G+        E+S._ _ _ D+C+B+{+6+{+{+{+4+A+  ",
"  H+I+7+{+{+{+6+J+/+D+_ _ _ 0 K+                                K+0 _ _ _ D+/+J+6+{+{+{+7+I+H+  ",
"  L+.+7+M+{+{+{+N+_ D+_ _ _ _+O+                                O+_+_ _ _ D+_ N+{+{+{+M+7+.+L+  ",
"  P+Q+R+S+T+T+T+T+U+U+U+U+U+U+V+W+W+W+W+W+W+W+W+W+W+W+W+W+W+W+W+V+U+U+U+U+U+W+X+{+t+M+t+Y+Q+P+  ",
"  Z+`+ @.@+@+@@@@@@@@@@@@@@@+@@@@@@@#@@@@@@@@@@@@@@@@@@@@@@@@@@@@@@@@@@@@@+@+@$@s+{+t+t+Y+`+Z+  ",
"  %@&@*@=@-@;@.@@@>@,@'@)@!@~@{@]@^@/@>@(@(@(@(@(@(@(@(@(@(@(@(@(@(@_@_@:@:@<@[@~+t+t+Y+Y+&@%@  ",
"    }@|@1@2@3@4@5@6@7@8@9@0@a@b@c@d@e@f@g@g@g@g@g@g@g@g@g@g@g@g@g@g@g@g@h@i@g@j@4+7+k@Y+k@}@    ",
"    l@m@n@o@p@q@r@s@t@u@v@w@x@y@z@A@B@C@n@n@n@n@n@n@n@n@n@n@n@n@n@n@n@n@D@E@F@C@G@t+Y+H@{+l@    ",
"    I@J@K@L@M@N@O@P@Q@R@S@T@U@V@W@X@Y@Z@`@`@`@`@`@`@`@`@`@`@`@`@`@`@`@`@x+ #.#+#{+t+Y+Y+~+I@    ",
"    @###`@$#%#&#*#=#-#;#>#;#,#'#)#!#~#h@C.C.C.C.C.C.C.C.C.C.C.C.C.C.C.{#]#T+`@^#4+k@H@Y+/#@#    ",
"    (#_#=@:#<#<#<#<#<#<#<#<#<#<#<#<#<#<#<#<#<#<#<#<#<#<#<#<#<#<#<#<#<#<#:#:#_@[#{+k@Y+Y+}#(#    ",
"    :+|#1#1#1#2#1#3#4#C+4#C+C+5#                                5#C+C+4#C+4#3#{+k@Y+Y+Y+6#:+    ",
"    , N+Y+Y+Y+Y+k@t+4#R.C+/+/+7#8#                            8#7#/+/+C+R.4#t+k@Y+Y+Y+Y+N+,     ",
"    9#0#Y+Y+Y+Y+Y+t+#+/+/+/+D+a#b#                            b#a#D+/+/+/+#+t+Y+Y+Y+Y+Y+0#9#    ",
"    c#d#e#f#{+Y+Y+~+g#/+h#i#j#k#                                k#j#i#h#/+g#~+Y+Y+{+f#e#d#c#    ",
"        l#H@m#n#o#f#g#p#q#r#                                        r#q#p#g#f#o#n#m#H@l#        ",
"              s#t#u#v#w#                                                w#v#u#t#s#              ",
"                                                                                                "};
