/* XPM */
static char * aaxplayer_xpm[] = {
"48 48 634 2",
"  	c None",
". 	c #C4C4C3",
"+ 	c #C0C0C0",
"@ 	c #BEBEBE",
"# 	c #B6B6B6",
"$ 	c #B8B8B8",
"% 	c #CBCBCA",
"& 	c #C9C9C9",
"* 	c #C3C3C3",
"= 	c #B9B9B9",
"- 	c #BBBBBB",
"; 	c #B3B2B2",
"> 	c #B599AA",
", 	c #F1F1F1",
"' 	c #FFFFFF",
") 	c #F9F9F9",
"! 	c #E4E4E4",
"~ 	c #CCCCCC",
"{ 	c #CFCFCF",
"] 	c #FDFDFD",
"^ 	c #EBEBEB",
"/ 	c #ECECEC",
"( 	c #9E9D9D",
"_ 	c #FAFAFA",
": 	c #EEEEEE",
"< 	c #DADADA",
"[ 	c #C8C8C8",
"} 	c #DBDBDB",
"| 	c #F3F3F3",
"1 	c #E1E1E1",
"2 	c #E2E2E2",
"3 	c #FEFEFE",
"4 	c #999999",
"5 	c #D9D9D9",
"6 	c #C6C6C6",
"7 	c #E0E0E0",
"8 	c #989898",
"9 	c #EDEDED",
"0 	c #BFBCBB",
"a 	c #C2C2BF",
"b 	c #C1BFBD",
"c 	c #636160",
"d 	c #D5D5D4",
"e 	c #F8F9F9",
"f 	c #FFFFFE",
"g 	c #FBFBFC",
"h 	c #AAAAA7",
"i 	c #82827F",
"j 	c #C9C6C5",
"k 	c #CDCECC",
"l 	c #B8B7B4",
"m 	c #ACABA9",
"n 	c #CDCDCD",
"o 	c #FDFCFC",
"p 	c #FBFBFB",
"q 	c #FBFCFB",
"r 	c #FBFAFA",
"s 	c #ECEAEB",
"t 	c #B9B7B8",
"u 	c #F6F5F3",
"v 	c #FCFBFB",
"w 	c #FCFCFB",
"x 	c #FCFCFC",
"y 	c #FBFBFA",
"z 	c #F9F9F8",
"A 	c #FBF9F8",
"B 	c #C5C4C5",
"C 	c #F2F1F2",
"D 	c #E1E0E1",
"E 	c #E2E1E2",
"F 	c #FEFDFE",
"G 	c #999899",
"H 	c #878483",
"I 	c #F3F3F4",
"J 	c #FAFBFA",
"K 	c #FCFBFA",
"L 	c #FBFAFB",
"M 	c #FAF9F8",
"N 	c #F9F8F7",
"O 	c #FDFCFB",
"P 	c #BEBFBE",
"Q 	c #DADBDA",
"R 	c #F0F2F0",
"S 	c #DFE0DF",
"T 	c #DFE1DF",
"U 	c #FCFDFC",
"V 	c #A3A19E",
"W 	c #DDDDDD",
"X 	c #FAFAF9",
"Y 	c #FBFAF9",
"Z 	c #FAFAF8",
"` 	c #F9F9F7",
" .	c #F8F8F6",
"..	c #898887",
"+.	c #E4DCE5",
"@.	c #FFF3FF",
"#.	c #FFE2FF",
"$.	c #FDE2FC",
"%.	c #FFFEFF",
"&.	c #9F999F",
"*.	c #BDBCBA",
"=.	c #F9FAF7",
"-.	c #F8F7F5",
";.	c #F6F5F4",
">.	c #ECECED",
",.	c #8C8B8A",
"'.	c #F5F6F6",
").	c #F9F9FA",
"!.	c #CCDDD0",
"~.	c #1CEF2A",
"{.	c #22DF2E",
"].	c #1FDD2D",
"^.	c #13DC1E",
"/.	c #6BF675",
"(.	c #B79BB5",
"_.	c #F1F1F0",
":.	c #FFFEFD",
"<.	c #F8F7F6",
"[.	c #F7F6F4",
"}.	c #F6F4F4",
"|.	c #BCBCBB",
"1.	c #E5E6E4",
"2.	c #F9FAF9",
"3.	c #EBECEB",
"4.	c #D6D9D8",
"5.	c #C5C6C6",
"6.	c #BEDCC6",
"7.	c #00E100",
"8.	c #00D500",
"9.	c #00DA00",
"0.	c #27F32E",
"a.	c #C19BBE",
"b.	c #A4A4A4",
"c.	c #F2F2F2",
"d.	c #F7F7F5",
"e.	c #F5F2F0",
"f.	c #D8D7D6",
"g.	c #DED1DB",
"h.	c #FFF0FF",
"i.	c #FCDAFA",
"j.	c #CFC8CF",
"k.	c #E2DFE5",
"l.	c #A8FEB1",
"m.	c #ADEAB4",
"n.	c #A4E2AB",
"o.	c #97DF9E",
"p.	c #C6FBCD",
"q.	c #B099B1",
"r.	c #C8C7C6",
"s.	c #F2F1EF",
"t.	c #F1EFED",
"u.	c #ECE4E9",
"v.	c #A9B8AA",
"w.	c #5FEE68",
"x.	c #6BE472",
"y.	c #60D968",
"z.	c #6EF875",
"A.	c #CBC7CC",
"B.	c #DADDDE",
"C.	c #87FA88",
"D.	c #8CE894",
"E.	c #88E08F",
"F.	c #7DDF82",
"G.	c #B7F9B8",
"H.	c #B299B1",
"I.	c #AAABAA",
"J.	c #F7F6F5",
"K.	c #F5F4F2",
"L.	c #F0EDEB",
"M.	c #EEECEA",
"N.	c #FFF9FE",
"O.	c #AFA3AC",
"P.	c #00DF00",
"Q.	c #00F100",
"R.	c #C1C7C2",
"S.	c #C5DCCB",
"T.	c #00E200",
"U.	c #00D700",
"V.	c #00DC00",
"W.	c #00D900",
"X.	c #2CF337",
"Y.	c #BD9BBD",
"Z.	c #EAE7E6",
"`.	c #CDCDCC",
" +	c #F6F6F4",
".+	c #F6F3F1",
"++	c #EFEDEB",
"@+	c #EEEBEA",
"#+	c #ECEAE8",
"$+	c #F9F7F5",
"%+	c #C49CBD",
"&+	c #4FE75C",
"*+	c #4DE34E",
"=+	c #44DA4A",
"-+	c #4CF553",
";+	c #CBC7CB",
">+	c #D0DDD4",
",+	c #49F34D",
"'+	c #4EE453",
")+	c #49DE4F",
"!+	c #3DDC41",
"~+	c #89F78B",
"{+	c #B59BB4",
"]+	c #B7B5B5",
"^+	c #FDFEFD",
"/+	c #FDFCF9",
"(+	c #F1EDEB",
"_+	c #EDECEA",
":+	c #EAE9E7",
"<+	c #F6F7F2",
"[+	c #CDAEC8",
"}+	c #DEECE0",
"|+	c #ECF0F3",
"1+	c #DCDDE2",
"2+	c #E9FDED",
"3+	c #DCC7DD",
"4+	c #E9E0EB",
"5+	c #EEFFF5",
"6+	c #F2F0F8",
"7+	c #E3E3E9",
"8+	c #DAE1DE",
"9+	c #F3FEF8",
"0+	c #AF99AD",
"a+	c #BBBAB6",
"b+	c #FAF9FA",
"c+	c #F7F6F3",
"d+	c #F6F5F5",
"e+	c #F3F1EF",
"f+	c #F0EEEC",
"g+	c #EEEDEB",
"h+	c #EAE9E6",
"i+	c #F2F6EF",
"j+	c #FAB0F2",
"k+	c #00D100",
"l+	c #00DB00",
"m+	c #BEC7C1",
"n+	c #BBDCC3",
"o+	c #00D800",
"p+	c #2BF331",
"q+	c #BF9BBD",
"r+	c #ECE7E6",
"s+	c #CACACA",
"t+	c #F5F4F4",
"u+	c #F7F5F4",
"v+	c #F4F3F1",
"w+	c #FBF9F5",
"x+	c #EBE9E8",
"y+	c #E9E7E5",
"z+	c #F3F2F0",
"A+	c #EDE9E7",
"B+	c #E8E8E5",
"C+	c #F2F4F1",
"D+	c #CA9AC5",
"E+	c #04E014",
"F+	c #00DD00",
"G+	c #00F206",
"H+	c #C5C7C6",
"I+	c #C7DCCC",
"J+	c #00E800",
"K+	c #00DD05",
"L+	c #00DD04",
"M+	c #4BF457",
"N+	c #BB9BBA",
"O+	c #A7A8A7",
"P+	c #F7F8F6",
"Q+	c #F6F7F5",
"R+	c #F2EFED",
"S+	c #FCFBF9",
"T+	c #C3C2C2",
"U+	c #AEADAE",
"V+	c #B3B3B2",
"W+	c #C0BFBE",
"X+	c #F2F2F0",
"Y+	c #F4F2F1",
"Z+	c #C5A2C0",
"`+	c #FDFEFF",
" @	c #FFEFFF",
".@	c #FEDBFF",
"+@	c #E0C7E0",
"@@	c #EADEEA",
"#@	c #FFE3FF",
"$@	c #F9E3FC",
"%@	c #AE99AB",
"&@	c #C6C4C3",
"*@	c #FBFBF8",
"=@	c #F6F4F2",
"-@	c #F4F2F0",
";@	c #F1EEEC",
">@	c #F5F3F1",
",@	c #D4D2D0",
"'@	c #B7B7B7",
")@	c #DFDEDC",
"!@	c #E2E1E1",
"~@	c #C4C5C3",
"{@	c #CCCBCA",
"]@	c #EEEEEB",
"^@	c #F1DBEB",
"/@	c #8CB290",
"(@	c #00F200",
"_@	c #C2C7C3",
":@	c #C7DBCB",
"<@	c #44F550",
"[@	c #BC9BBA",
"}@	c #A6A6A5",
"|@	c #EDEBE9",
"1@	c #D7D6D2",
"2@	c #E5E4E2",
"3@	c #E9E8E6",
"4@	c #E7E6E4",
"5@	c #B4B3B4",
"6@	c #F4F2ED",
"7@	c #ECD5E8",
"8@	c #43BD4D",
"9@	c #00E000",
"0@	c #00F300",
"a@	c #C8C7C8",
"b@	c #CADED1",
"c@	c #00E600",
"d@	c #00DC01",
"e@	c #48F351",
"f@	c #BE9BBD",
"g@	c #E6E5E5",
"h@	c #F0EFED",
"i@	c #EDEDEB",
"j@	c #EFECEA",
"k@	c #ECEBE9",
"l@	c #CECDCC",
"m@	c #CBC9C7",
"n@	c #EBEAE8",
"o@	c #EDECE9",
"p@	c #D6D5D3",
"q@	c #C4C3C2",
"r@	c #C9B6C8",
"s@	c #90D88D",
"t@	c #82EE80",
"u@	c #86E682",
"v@	c #7ADA76",
"w@	c #7EF97E",
"x@	c #D2C7D2",
"y@	c #DBDDE1",
"z@	c #83F883",
"A@	c #87E682",
"B@	c #80E07D",
"C@	c #72DF6F",
"D@	c #ACF9AC",
"E@	c #B499B2",
"F@	c #B2B3B0",
"G@	c #EDEAE9",
"H@	c #EBE9E7",
"I@	c #EAE8E6",
"J@	c #EAEAE7",
"K@	c #EDEBEB",
"L@	c #CECCCB",
"M@	c #BABAB7",
"N@	c #BBBBBA",
"O@	c #C8C7C5",
"P@	c #E9E9E8",
"Q@	c #A590A3",
"R@	c #AAEEA9",
"S@	c #7BED7B",
"T@	c #7EE67E",
"U@	c #72DA72",
"V@	c #76F77A",
"W@	c #DBDDE0",
"X@	c #7CF87A",
"Y@	c #7FE67E",
"Z@	c #79DF79",
"`@	c #6ADE69",
" #	c #A6F9A9",
".#	c #B599B4",
"+#	c #BEBDBB",
"@#	c #B5B4B3",
"##	c #EBE9E6",
"$#	c #EBE8E6",
"%#	c #E8E7E5",
"&#	c #E8E6E4",
"*#	c #E8E8E4",
"=#	c #E9E8E7",
"-#	c #EAE9E5",
";#	c #FFFFFD",
">#	c #7D7E7A",
",#	c #DDBCDD",
"'#	c #3FD73F",
")#	c #C6C8C6",
"!#	c #CADECE",
"~#	c #44F34C",
"{#	c #BD9BBE",
"]#	c #9E9B9A",
"^#	c #E4E3E2",
"/#	c #EAEAE8",
"(#	c #EAE7E5",
"_#	c #EBE7E5",
":#	c #E9E5E3",
"<#	c #E6E4E2",
"[#	c #E5E3E1",
"}#	c #E2E0DE",
"|#	c #A9AAA7",
"1#	c #5EDB61",
"2#	c #10E321",
"3#	c #17DE26",
"4#	c #0FDA1E",
"5#	c #16F428",
"6#	c #C6C7C7",
"7#	c #CEDDD3",
"8#	c #0FED1D",
"9#	c #15DE25",
"0#	c #16DD24",
"a#	c #04DB16",
"b#	c #64F66D",
"c#	c #B99BB8",
"d#	c #908F8E",
"e#	c #D3D2D2",
"f#	c #E9E6E4",
"g#	c #E6E6E4",
"h#	c #E7E5E3",
"i#	c #E6E5E3",
"j#	c #E4E4E3",
"k#	c #E4E3E1",
"l#	c #E2E1DF",
"m#	c #E1E1DE",
"n#	c #B5B5B5",
"o#	c #DDECDF",
"p#	c #EAFAED",
"q#	c #F2EDF4",
"r#	c #EADCE9",
"s#	c #F1FDF4",
"t#	c #DEC7DD",
"u#	c #E6DDE7",
"v#	c #E6FFE8",
"w#	c #F3F2F3",
"x#	c #EEE3F0",
"y#	c #E6E1E7",
"z#	c #F9FEFA",
"A#	c #AE99AD",
"B#	c #9B9898",
"C#	c #CAC9C8",
"D#	c #E8E6E2",
"E#	c #E1DFDD",
"F#	c #E6E2E0",
"G#	c #E3E4E0",
"H#	c #E5E2E0",
"I#	c #E4E3E0",
"J#	c #E2DFDD",
"K#	c #DEDDD9",
"L#	c #EFEDEA",
"M#	c #F7F7F4",
"N#	c #D7D6D5",
"O#	c #AFAFAD",
"P#	c #39D93D",
"Q#	c #C6C7C6",
"R#	c #CCDDD1",
"S#	c #00E400",
"T#	c #39F347",
"U#	c #C19DBF",
"V#	c #959694",
"W#	c #9DA1A1",
"X#	c #F4F6F7",
"Y#	c #E9EBE9",
"Z#	c #E8EAE8",
"`#	c #E7E8E7",
" $	c #E7E7E7",
".$	c #E5E5E5",
"+$	c #EBECEC",
"@$	c #FEFFFF",
"#$	c #D0D0D1",
"$$	c #A3A3A2",
"%$	c #A6A5A3",
"&$	c #25DA28",
"*$	c #00F800",
"=$	c #A4B2AB",
"-$	c #ACCCB7",
";$	c #00EE00",
">$	c #21F72A",
",$	c #9A799D",
"'$	c #FFFEF8",
")$	c #FFF8F1",
"!$	c #FCF7EF",
"~$	c #FDF7EF",
"{$	c #F3EEE6",
"]$	c #EAE3DC",
"^$	c #E6E0D9",
"/$	c #D6CEC8",
"($	c #D3CCC7",
"_$	c #D1CAC3",
":$	c #D3CBC3",
"<$	c #D2CBC4",
"[$	c #D2CCC4",
"}$	c #D3CBC2",
"|$	c #D9D1C9",
"1$	c #B3B0AD",
"2$	c #FDF5EF",
"3$	c #FEF8EF",
"4$	c #F2EEE4",
"5$	c #EFE2E1",
"6$	c #F5D3E7",
"7$	c #FFCDF6",
"8$	c #FFCDFA",
"9$	c #FFCCFA",
"0$	c #FFCFF0",
"a$	c #F9E0EA",
"b$	c #F3EBE6",
"c$	c #F3EBE5",
"d$	c #F7DFE8",
"e$	c #FECEF0",
"f$	c #FFCCF6",
"g$	c #F8D2EA",
"h$	c #F9EAED",
"i$	c #F2EFEB",
"j$	c #F6F4EF",
"k$	c #E3DED9",
"l$	c #F2F0EF",
"m$	c #FEFCFC",
"n$	c #FEFCFD",
"o$	c #DEDEDE",
"p$	c #E8E5E2",
"q$	c #F8F8F7",
"r$	c #FEFDFD",
"s$	c #9F9F9F",
"t$	c #464444",
"u$	c #A8A8A6",
"v$	c #434241",
"w$	c #E4E0DD",
"x$	c #F2EFEE",
"y$	c #FDFDFA",
"z$	c #B3B3B3",
"A$	c #000000",
"B$	c #4D4D4D",
"C$	c #DFDFDF",
"D$	c #FFFFFC",
"E$	c #FDFDFC",
"F$	c #E7E4E1",
"G$	c #F9F7F6",
"H$	c #FEFEFB",
"I$	c #4A4B4B",
"J$	c #F7F7F6",
"K$	c #545353",
"L$	c #B2B2B3",
"M$	c #FEFDFC",
"N$	c #E1DEDA",
"O$	c #F0EFEE",
"P$	c #FBFCFC",
"Q$	c #1F1F1E",
"R$	c #FFFDFE",
"S$	c #FDFBFC",
"T$	c #595959",
"U$	c #646464",
"V$	c #DFDCD6",
"W$	c #F0EEEB",
"X$	c #FCFBF8",
"Y$	c #FBF9F9",
"Z$	c #060607",
"`$	c #393839",
" %	c #CAC8C7",
".%	c #FCF9FA",
"+%	c #E4DFDD",
"@%	c #FCFAF8",
"#%	c #595858",
"$%	c #636362",
"%%	c #BFBFBF",
"&%	c #FDFBF9",
"*%	c #DEDAD5",
"=%	c #EFEEED",
"-%	c #F5F5F0",
";%	c #F5F2F3",
">%	c #ACACAD",
",%	c #9D9B9A",
"'%	c #F8F4F4",
")%	c #F5F4F1",
"!%	c #F5F3F0",
"~%	c #F7F5F3",
"{%	c #F6F4F3",
"]%	c #E0DDD9",
"^%	c #F9F8F6",
"/%	c #F7F4F2",
"(%	c #F5F3F2",
"_%	c #3A3839",
":%	c #EEEFF0",
"<%	c #403E3D",
"[%	c #AAABAC",
"}%	c #F7F5F2",
"|%	c #F8F6F5",
"1%	c #FFFEFE",
"2%	c #DBD9D3",
"3%	c #FAF9F5",
"4%	c #F5F1EF",
"5%	c #F4F0EF",
"6%	c #F4F1ED",
"7%	c #F9F7F2",
"8%	c #FDFEFA",
"9%	c #FAFAF5",
"0%	c #F5F4EF",
"a%	c #F2F0EB",
"b%	c #F2F1ED",
"c%	c #F4EFED",
"d%	c #F2F2ED",
"e%	c #F4F1EF",
"f%	c #DFDAD6",
"g%	c #D6D2CD",
"h%	c #F4F3F0",
"i%	c #F2F0ED",
"j%	c #FFFFFB",
"k%	c #BBBBB8",
"l%	c #7F7E7C",
"m%	c #C2BFBC",
"n%	c #807F7D",
"o%	c #FAF8F3",
"p%	c #F4F2EF",
"q%	c #F4F0F0",
"r%	c #DCD8D2",
"s%	c #EAE8E7",
"t%	c #FCF9F9",
"u%	c #F6F6F2",
"v%	c #F4F3EF",
"w%	c #F3F3F0",
"x%	c #F6F3F0",
"y%	c #E1DDD9",
"z%	c #E2DCD7",
"A%	c #F7F4F1",
"B%	c #F6F4F1",
"C%	c #F3F3EF",
"D%	c #D2CEC8",
"E%	c #DCD5CE",
"F%	c #E8E5E3",
"G%	c #EEEBEB",
"H%	c #EDEAE8",
"I%	c #E5E2DF",
"J%	c #D9D3CD",
"K%	c #D8D4CF",
"L%	c #ECE9E7",
"M%	c #EBE8E7",
"N%	c #EBEAE9",
"O%	c #EBEAE7",
"P%	c #EEECEB",
"Q%	c #DCD8D4",
"                                                                                                ",
"                                                                                                ",
"                                                                                                ",
"                                                            . + @ # $ %       & * @ = - ;       ",
"                              >                             , ' ) ! ' ~       { ' ] ^ / ' (     ",
"                                                            / _ : < ] [       } ' | 1 2 3 4     ",
"                                                            / _ / 5 ] 6       } ' , 7 1 ] 8     ",
"                                                            / _ 9 < ] 6       } ' , 7 1 ] 8     ",
"                                                            / _ 9 < ] 6       } ' , 7 1 ] 8     ",
"                                                            / _ 9 < ] 6       } ' , 7 1 ] 8     ",
"                                0 a b                       / _ 9 < ] 6       } ' , 7 1 ] 8     ",
"                          c d e ] ' f f g h i               / _ 9 < ] 6       } ' , 7 1 ] 8     ",
"                      j k ' ' ' ' ' ' ' ' ' ' l m           / _ 9 < ] 6       } ' , 7 1 ] 8     ",
"                    n o ' ' p ] ] ] ] o q r ' ' s t         / _ 9 < ] 6       } ' , 7 1 ] 8     ",
"                  u ' ' v w x x o o x w y y z A ' ' B       / _ 9 < ] 6       } ' C D E F G     ",
"              H I ' v J y K w w w w v y y L M M N O ' P     ^ _ 9 < ] 6       Q ' R S T U G     ",
"            V W ' X Y r r y y v v v y y r Z M ` N  .M ' ..  ^ ) 9 < ] 6       +.' @.#.$.%.&.    ",
"            *.' =.M X Y Y r y y y y r Y X M N N  .-.;.' >.,.'.).9 < ] 6       !.~.{.].^./.(.    ",
"            _.:.N z M M M X X X X X X M M z N <.<.-.[.}.' |.1.2.3.4.U 5.      6.7.8.9.9.0.a.    ",
"          b.c.=.N N ` z M M M M M M z z N N <.<.-.[.u d.e.f.g.' h.i.' j.      k.l.m.n.o.p.q.    ",
"          r.' <. . .N N z z M M M z ` N N N <.-.[.[.d.s.t.u.v.w.x.y.z.A.      B.C.D.E.F.G.H.    ",
"          I.' J.<. . .N N N N N N N N  . .-.-.[.[.u K.L.M.N.O.P.9.9.Q.R.      S.T.U.V.W.X.Y.    ",
"        Z.`.' ;.d.<.<.<.<. . . . .<.<.d.J.J.[. +u .+++@+#+$+%+&+*+=+-+;+      >+,+'+)+!+~+{+    ",
"        ]+^+/+u J.J.-.-.-.<.<.<.-.-.J.J.J.[.;.[.u (+++_+:+<+[+}+|+1+2+3+      4+5+6+7+8+9+0+    ",
"        a+b+r c+[.[.J.J.J.J.J.J.J.J.[.[. +d+[.e+f+f+g+#+h+i+j+k+l+9.Q.m+      n+7.8.V.o+p+q+    ",
"        r+s+' t+ +u+[.[.[.[.[.[.[. +;.u [.v+s.w+x+y+z+A+B+C+D+E+F+9.G+H+      I+J+K+L+l+M+N+    ",
"          O+' e+P+u u Q+Q+Q+Q+Q+d+[.[.z+s.R+S+T+U+V+W+X+y+Y+Z+`+ @.@' +@      @@' @.#@$@%.%@    ",
"          &@*@++f+e+=@z+-@v+-@-@-@e+;@M.f+>@,@'@)@!@~@{@]@^@/@7.V.9.(@_@      :@J+l+V.W.<@[@    ",
"          }@x+;@f+M.++t.t.t.t.t.M.f+|@++M.=@P 1@2@3@4@5@6@7@8@9@V.9.0@a@      b@c@l+d@9.e@f@    ",
"            g@h@|@f+@+i@++++|@j@j@_+M.k@#+e+l@m@n@o@p@q@A r@s@t@u@v@w@x@      y@z@A@B@C@D@E@    ",
"            F@' y+G@|@|@|@|@|@|@#+#+n@H@I@J@K@L@M@N@O@f+P@Q@R@S@T@U@V@x@      W@X@Y@Z@`@ #.#    ",
"            +#@#' I@##H@$#H@H@H@H@:+I@y+%#&#*#n@k@=#-#;#>#,#'#V.l+9.0@)#      !#c@9.V.9.~#{#    ",
"              ]#^#u+:+:+:+/#3@(#_#%#%#4@:#<#<#[#}#[#z+|#    1#2#3#4#5#6#      7#8#9#0#a#b#c#    ",
"                d#e#J.H@<#<#&#f#g#h#i#<#j#k#l#m#%#_+n#      o#p#q#r#s#t#      u#v#w#x#y#z#A#    ",
"                  B#C#h+;#D#E#k#F#G#H#I#J#K#L#M#N#O#        P#V.W.o+Q.Q#      R#S#o+l+W.T#U#    ",
"                      V#W#X#p Y#Z#`# $.$+$@$#$$$%$          &$S#7.9@*$=$      -$;$7.7.9@>$,$    ",
"    '$)$!$~$~$~$~${$]$^$/$($_$:$<$[$[$[$}$|$1$      2$3$4$5$6$7$8$9$0$a$b$~$c$d$e$9$8$f$g$h$    ",
"    i$' ' ' ' ' ' ' ' ' ' ' ' ' ' ' ' ' ' ' j$      ] ' ' ' ' ' ' ' ' ' ' ' ' ' ' ' ' ' ' ' k$  ",
"    l$' m$m$n$o ' o$& ' ' ' o m$n$n$n$n$n$' p$      q$' m$n$n$r$' s$t$' u$v$Q ' o n$n$n$r$' w$  ",
"    x$' ] y$y$y$' z$A$B$C$' ' D$y$y$y$E$E$' F$      G$@$E$y$y$H$' I$A$J$K$A$L$' y$y$y$E$M$' N$  ",
"    O$' P$v v L ' 6 A$A$A$Q$ $' v v v v o ' I#      q$R$x v v S$' T$A$' U$A$@ ' L v v v o ' V$  ",
"    W$' Y X$X$Y$' * A$A$Z$`$ %' .%K X$y L ' +%      d.M$r X$K @%' #%A$' $%A$%%' Y$X$K &%L ' *%  ",
"    =%@% +-%>@;%:.>%A$,%k@' ' '%;%)%!%~%{%:.]%      u ^%/%!%(%e.' _%A$:%<%A$[%' ;%>@>@}%|%1%2%  ",
"    f+3%4%5%6%6%7%>@8%' 9%0%a%a%b%6%c%d%e%O f%    g%h%}%-@6%6%i%j%k%l%f m%n%F#o%6%6%p%q%-@m$r%  ",
"    s%t%u%v%w%h%!%7%}%!%x%x%x%x%x%h%w%x%/%:.y%    z%.+-..+w%h%x%A%' ' j%' ' f B%h%h%C%B%c+f D%  ",
"    E%F%@+g+G%G%G%G%G%G%G%G%G%G%G%G%G%g+H%I%J%      K%L%g+G%G%G%_+n@M%N%O%M%#+P%G%G%G%G%#+Q%    ",
"                                                                                                ",
"                                                                                                "};
