/* XPM */
static char * aaxplayer_xpm[] = {
"48 48 720 2",
"  	c None",
". 	c #F6F4F2",
"+ 	c #F8F6F4",
"@ 	c #F9F7F5",
"# 	c #F7F5F3",
"$ 	c #D3D2D1",
"% 	c #C0BFBE",
"& 	c #C2C1C0",
"* 	c #C6C6C4",
"= 	c #F0EEEC",
"- 	c #E5E4E3",
"; 	c #C1C0BF",
"> 	c #C3C2C1",
", 	c #BFBEBD",
"' 	c #E1E0DE",
") 	c #FAF7F5",
"! 	c #C1C1C1",
"~ 	c #FFFFFF",
"{ 	c #EDEDEE",
"] 	c #DFDFDF",
"^ 	c #CBCAC8",
"/ 	c #C8C7C7",
"( 	c #EEEEEE",
"_ 	c #FAFAF9",
": 	c #B4B4B4",
"< 	c #F8F7F4",
"[ 	c #F5F4F2",
"} 	c #E9ECE8",
"| 	c #E2E9E2",
"1 	c #F0F0EE",
"2 	c #F9F6F4",
"3 	c #CACACA",
"4 	c #F7F7F7",
"5 	c #E4E4E4",
"6 	c #DBDBDB",
"7 	c #D4D3D2",
"8 	c #FFFEFC",
"9 	c #D2D1D1",
"0 	c #F4F4F4",
"a 	c #E6E6E6",
"b 	c #EDEDED",
"c 	c #C1C0C0",
"d 	c #F5F3F1",
"e 	c #E2E8E2",
"f 	c #3C9064",
"g 	c #368F62",
"h 	c #368E61",
"i 	c #77AF91",
"j 	c #C9C9C9",
"k 	c #F8F8F8",
"l 	c #E5E5E5",
"m 	c #D3D2D2",
"n 	c #D1D1D0",
"o 	c #EEEEED",
"p 	c #C0C0BF",
"q 	c #F4F3F0",
"r 	c #6BA787",
"s 	c #379163",
"t 	c #389364",
"u 	c #389365",
"v 	c #389264",
"w 	c #3C9165",
"x 	c #CEDDD3",
"y 	c #CEDDD2",
"z 	c #3C9066",
"A 	c #73AD8F",
"B 	c #F4F2F0",
"C 	c #78AE92",
"D 	c #379063",
"E 	c #378E61",
"F 	c #E8ECE6",
"G 	c #F2F2EE",
"H 	c #D6E1D9",
"I 	c #409368",
"J 	c #77AF92",
"K 	c #368D60",
"L 	c #EEEFEC",
"M 	c #3B8F64",
"N 	c #389062",
"O 	c #388D62",
"P 	c #379264",
"Q 	c #6AA687",
"R 	c #F2F2EF",
"S 	c #82B49A",
"T 	c #379062",
"U 	c #389164",
"V 	c #4E9B73",
"W 	c #8BB8A0",
"X 	c #ECEEEA",
"Y 	c #EAEEE9",
"Z 	c #378D62",
"` 	c #399365",
" .	c #78AE91",
"..	c #409268",
"+.	c #60A17F",
"@.	c #F3F2F0",
"#.	c #EFF0EC",
"$.	c #6FAA8A",
"%.	c #379164",
"&.	c #3E9266",
"*.	c #DBE4DD",
"=.	c #96BEA8",
"-.	c #389063",
";.	c #399063",
">.	c #D2DFD6",
",.	c #F3F4F3",
"'.	c #E5E6E6",
").	c #ECEEEC",
"!.	c #F0F0EC",
"~.	c #388F63",
"{.	c #6AA787",
"].	c #398F63",
"^.	c #68A686",
"/.	c #D2D0D0",
"(.	c #FCF6FD",
"_.	c #EEE7EE",
":.	c #F6EEF7",
"<.	c #CED5CF",
"[.	c #E2E0DF",
"}.	c #DFDEDC",
"|.	c #E3E1DF",
"1.	c #79AB90",
"2.	c #3A9165",
"3.	c #BBD3C5",
"4.	c #C8C9C9",
"5.	c #F7F8F7",
"6.	c #E4E5E4",
"7.	c #DADBDA",
"8.	c #FAFDF6",
"9.	c #C7D0C8",
"0.	c #2FDD31",
"a.	c #2BDD2B",
"b.	c #21E620",
"c.	c #B2BFB5",
"d.	c #FAF6F6",
"e.	c #CADBD0",
"f.	c #3A9064",
"g.	c #66A485",
"h.	c #EEEEEC",
"i.	c #69A886",
"j.	c #CAC9CB",
"k.	c #FDF8FC",
"l.	c #E9E5E9",
"m.	c #DEDBDE",
"n.	c #FBFEF7",
"o.	c #CBCFCA",
"p.	c #3EE24D",
"q.	c #40DF4E",
"r.	c #2AE73B",
"s.	c #B9BFB8",
"t.	c #70AB8B",
"u.	c #389163",
"v.	c #368F61",
"w.	c #5FA17F",
"x.	c #78AF92",
"y.	c #76AD90",
"z.	c #77AE91",
"A.	c #75AD8F",
"B.	c #46946C",
"C.	c #C7DACE",
"D.	c #F7F6F3",
"E.	c #9DC4A1",
"F.	c #67EB74",
"G.	c #64E170",
"H.	c #72D77A",
"I.	c #E3D3E0",
"J.	c #CDD0CC",
"K.	c #6CE778",
"L.	c #6AE176",
"M.	c #5CE969",
"N.	c #BABFBA",
"O.	c #F9F6F5",
"P.	c #E1E8E2",
"Q.	c #57A07B",
"R.	c #389263",
"S.	c #399265",
"T.	c #9FC5B0",
"U.	c #F6F6F2",
"V.	c #82C085",
"W.	c #10E010",
"X.	c #16DE15",
"Y.	c #24D32F",
"Z.	c #F0D4EC",
"`.	c #F8FDF4",
" +	c #C6D0C7",
".+	c #18DB1B",
"++	c #16DC17",
"@+	c #0AE509",
"#+	c #B1BFB4",
"$+	c #9EC4AF",
"%+	c #3A9365",
"&+	c #3A9366",
"*+	c #46966D",
"=+	c #E4EAE4",
"-+	c #F8F6F3",
";+	c #AAC6AE",
">+	c #93EF9E",
",+	c #8BE296",
"'+	c #93D999",
")+	c #DED3DB",
"!+	c #FDFEF9",
"~+	c #CFD0CD",
"{+	c #96EB9F",
"]+	c #90E29A",
"^+	c #87EB92",
"/+	c #BCBFBC",
"(+	c #E3E9E3",
"_+	c #519C76",
":+	c #378F62",
"<+	c #3D9567",
"[+	c #3B9366",
"}+	c #92BEA6",
"|+	c #7BBF7E",
"1+	c #00DE00",
"2+	c #11D21E",
"3+	c #F3D4EE",
"4+	c #F7FDF3",
"5+	c #C5D0C6",
"6+	c #04D909",
"7+	c #04DC06",
"8+	c #00E400",
"9+	c #B1BFB3",
"0+	c #FBF6F6",
"a+	c #A6C8B5",
"b+	c #307E56",
"c+	c #256243",
"d+	c #286948",
"e+	c #358D60",
"f+	c #348C5F",
"g+	c #348B5E",
"h+	c #358C5F",
"i+	c #2E7953",
"j+	c #318058",
"k+	c #3A9466",
"l+	c #429369",
"m+	c #EBEEE9",
"n+	c #F2F1EF",
"o+	c #F6F5F2",
"p+	c #A8C6AA",
"q+	c #88EE92",
"r+	c #81E289",
"s+	c #8AD790",
"t+	c #E0D3DD",
"u+	c #FCFEF8",
"v+	c #CDD0CD",
"w+	c #8CEA95",
"x+	c #86E28F",
"y+	c #7FEA87",
"z+	c #BBBFBB",
"A+	c #45956C",
"B+	c #33855B",
"C+	c #21573B",
"D+	c #2A4336",
"E+	c #626461",
"F+	c #656564",
"G+	c #6D6C6B",
"H+	c #5F5F5E",
"I+	c #5D5C5B",
"J+	c #60605F",
"K+	c #686767",
"L+	c #6B6A69",
"M+	c #686766",
"N+	c #505B55",
"O+	c #204834",
"P+	c #266344",
"Q+	c #358B5F",
"R+	c #94BEA7",
"S+	c #F2F4EF",
"T+	c #77C07C",
"U+	c #00DF00",
"V+	c #00DE02",
"W+	c #11D320",
"X+	c #F2D4EE",
"Y+	c #C7CFC7",
"Z+	c #00D906",
"`+	c #00DB0A",
" @	c #B3BFB4",
".@	c #A4C7B3",
"+@	c #3A8F64",
"@@	c #C8D9CE",
"#@	c #F1F1EE",
"$@	c #79AE92",
"%@	c #43966C",
"&@	c #E5EAE5",
"*@	c #BCC8BD",
"=@	c #CEF4CC",
"-@	c #BFE3BD",
";@	c #B9DABB",
">@	c #D9D2D6",
",@	c #FEFEFA",
"'@	c #CFD0CE",
")@	c #CDF0CC",
"!@	c #C1E4BF",
"~@	c #C6ECC3",
"{@	c #BCBFBD",
"]@	c #7BB195",
"^@	c #D8E3DA",
"/@	c #42956A",
"(@	c #ACCAB9",
"_@	c #72BF78",
":@	c #00DD00",
"<@	c #07D217",
"[@	c #F4D4EF",
"}@	c #F6FDF3",
"|@	c #00D800",
"1@	c #00DB01",
"2@	c #00E300",
"3@	c #63A381",
"4@	c #48976E",
"5@	c #4B9971",
"6@	c #4A9870",
"7@	c #519B75",
"8@	c #BED5C7",
"9@	c #8BB9A0",
"0@	c #4C9971",
"a@	c #90BAA3",
"b@	c #99C49B",
"c@	c #58E962",
"d@	c #56E15F",
"e@	c #65D76D",
"f@	c #E5D3E1",
"g@	c #FBFDF7",
"h@	c #CBD0CB",
"i@	c #60E568",
"j@	c #5BE065",
"k@	c #51E857",
"l@	c #B8BFB9",
"m@	c #F7F6F2",
"n@	c #97C49A",
"o@	c #53E85C",
"p@	c #51E15A",
"q@	c #61D669",
"r@	c #E6D3E3",
"s@	c #5BE462",
"t@	c #57E060",
"u@	c #4BE852",
"v@	c #FAF6F5",
"w@	c #78C07C",
"x@	c #00DE04",
"y@	c #13D421",
"z@	c #F2D3EE",
"A@	c #00DA07",
"B@	c #00DC0D",
"C@	c #00E500",
"D@	c #B4BEB5",
"E@	c #F8F5F4",
"F@	c #CFC3CB",
"G@	c #EECBEA",
"H@	c #E6C5E2",
"I@	c #DFC4DC",
"J@	c #DEE1DB",
"K@	c #FDFAF9",
"L@	c #D8D5D5",
"M@	c #EBCAE7",
"N@	c #E6C6E2",
"O@	c #ECC6E8",
"P@	c #CFCDCD",
"Q@	c #FBF9F7",
"R@	c #F8F8F4",
"S@	c #F9F9F5",
"T@	c #F5F4F1",
"U@	c #F9F8F5",
"V@	c #F8F9F4",
"W@	c #FAF8F6",
"X@	c #F6F4F3",
"Y@	c #F7F4F3",
"Z@	c #F9F7F6",
"`@	c #E8BFE7",
" #	c #FDC1FD",
".#	c #FDBCFA",
"+#	c #F8BCF7",
"@#	c #FBBCFA",
"##	c #FEBCFF",
"$#	c #FFBEFF",
"%#	c #FFBCFF",
"&#	c #FDBEFB",
"*#	c #FDBCFC",
"=#	c #F7BCF5",
"-#	c #FEBCFD",
";#	c #FCBEFC",
">#	c #FEBCFE",
",#	c #FCBCF9",
"'#	c #F5BCF7",
")#	c #FEBCFC",
"!#	c #FCBEFA",
"~#	c #FCBEFE",
"{#	c #FDBCFF",
"]#	c #F9BCF9",
"^#	c #F8BCF8",
"/#	c #FFBCFC",
"(#	c #FEBEFD",
"_#	c #EBBEEB",
":#	c #D2BBD3",
"<#	c #DFDAD5",
"[#	c #DED9D4",
"}#	c #4EA557",
"|#	c #00FF00",
"1#	c #96FF91",
"2#	c #00FF0B",
"3#	c #16FF21",
"4#	c #3AFF35",
"5#	c #00FC00",
"6#	c #6BFF75",
"7#	c #85FF87",
"8#	c #6FFF75",
"9#	c #00FE00",
"0#	c #56FF5F",
"a#	c #23FF1F",
"b#	c #3AFF42",
"c#	c #97FF95",
"d#	c #00FA00",
"e#	c #BFFFCA",
"f#	c #84FF80",
"g#	c #27FF32",
"h#	c #68FF66",
"i#	c #9CFFA4",
"j#	c #F2EDED",
"k#	c #C4BEBE",
"l#	c #B9B6C0",
"m#	c #B4C0D4",
"n#	c #EAEDED",
"o#	c #F2F0EE",
"p#	c #679F6F",
"q#	c #B6E3B1",
"r#	c #22ED36",
"s#	c #45EC53",
"t#	c #67EA68",
"u#	c #00F300",
"v#	c #A6E6A7",
"w#	c #02EF18",
"x#	c #96E899",
"y#	c #00F100",
"z#	c #78EA82",
"A#	c #01F00E",
"B#	c #52EC50",
"C#	c #5FEA6B",
"D#	c #11EF27",
"E#	c #B8E6B6",
"F#	c #00F700",
"G#	c #D4E6DD",
"H#	c #AAE6A8",
"I#	c #17EF2B",
"J#	c #4AEB58",
"K#	c #90E88C",
"L#	c #00F500",
"M#	c #B5E6BC",
"N#	c #00F400",
"O#	c #FFDAFF",
"P#	c #DBEACA",
"Q#	c #A69280",
"R#	c #5C6065",
"S#	c #D8E3E1",
"T#	c #B0AAAC",
"U#	c #817774",
"V#	c #8DA3AD",
"W#	c #DEDFE4",
"X#	c #DDDEDE",
"Y#	c #DEDEDE",
"Z#	c #DDDDDD",
"`#	c #E3E3E3",
" $	c #BEBFC0",
".$	c #8C958D",
"+$	c #38AC3A",
"@$	c #A5A2A1",
"#$	c #67A568",
"$$	c #72A577",
"%$	c #86A281",
"&$	c #54A556",
"*$	c #94A297",
"=$	c #4DA54B",
"-$	c #9DA39C",
";$	c #57A55C",
">$	c #95A394",
",$	c #55A353",
"'$	c #8CA28E",
")$	c #5EA55F",
"!$	c #7DA379",
"~$	c #7FA380",
"{$	c #5FA361",
"]$	c #A5A2A2",
"^$	c #35A535",
"/$	c #B3A2B3",
"($	c #38A736",
"_$	c #A0A29D",
":$	c #61A562",
"<$	c #77A378",
"[$	c #96A391",
"}$	c #3EA540",
"|$	c #A4A2A5",
"1$	c #33A632",
"2$	c #DBA0DE",
"3$	c #9FAEA5",
"4$	c #B5B4B9",
"5$	c #979188",
"6$	c #6B706F",
"7$	c #7A8997",
"8$	c #98948C",
"9$	c #949592",
"0$	c #A7A9AE",
"a$	c #A7A7A4",
"b$	c #A4A4A4",
"c$	c #A4A4A5",
"d$	c #AAAAA9",
"e$	c #909192",
"f$	c #F3F1EF",
"g$	c #EFEFEA",
"h$	c #EDF0E7",
"i$	c #EFF0EA",
"j$	c #EDF0E8",
"k$	c #EDF0EA",
"l$	c #EDEFE7",
"m$	c #EEEDE9",
"n$	c #ECEDE6",
"o$	c #F0EDEB",
"p$	c #EFEDEA",
"q$	c #F0EEEB",
"r$	c #EFECEB",
"s$	c #F1EEEB",
"t$	c #F1F0EE",
"u$	c #F3F0EE",
"v$	c #F2F0ED",
"w$	c #F2EFED",
"x$	c #F5F1F0",
"y$	c #F5F1EE",
"z$	c #F5F0EE",
"A$	c #F2EEED",
"B$	c #F5F1EF",
"C$	c #F3F1EE",
"D$	c #F8F4F2",
"E$	c #FBF8F7",
"F$	c #F6F1F0",
"G$	c #F4EFED",
"H$	c #F1EFEC",
"I$	c #F4F2EF",
"J$	c #F4F0EF",
"K$	c #ECE9E7",
"L$	c #F0ECE8",
"M$	c #F3F0EC",
"N$	c #F4F1ED",
"O$	c #F4F1EF",
"P$	c #F2F1ED",
"Q$	c #F7F5F4",
"R$	c #F0EEEA",
"S$	c #E5E1DD",
"T$	c #E6E0DC",
"U$	c #E4E0DC",
"V$	c #E8E3DD",
"W$	c #F3EDE9",
"X$	c #F4EDE9",
"Y$	c #E2DDD7",
"Z$	c #E5E0DC",
"`$	c #E6E2DE",
" %	c #E8E4E0",
".%	c #F8F4F3",
"+%	c #E8E6E2",
"@%	c #EBE7E3",
"#%	c #FFFFFC",
"$%	c #F7F2EE",
"%%	c #FFFFFD",
"&%	c #F2ECE8",
"*%	c #E7E1DD",
"=%	c #E7E0DC",
"-%	c #E6E3DF",
";%	c #EFEBE7",
">%	c #FAF9F8",
",%	c #ECEBE7",
"'%	c #E6E2DC",
")%	c #E5E1DB",
"!%	c #FFFCF7",
"~%	c #FFFEFA",
"{%	c #EAE5E1",
"]%	c #E9E3DF",
"^%	c #E6E4DE",
"/%	c #E5E1DC",
"(%	c #EEECEA",
"_%	c #F7F3F2",
":%	c #DEDAD4",
"<%	c #CACBCF",
"[%	c #D1D3D4",
"}%	c #E2DCD9",
"|%	c #F6F3F2",
"1%	c #E1DDD9",
"2%	c #FBFCFF",
"3%	c #DFE2E3",
"4%	c #E5E6E9",
"5%	c #F9FCFD",
"6%	c #E0DCD8",
"7%	c #FEFEFD",
"8%	c #E4E0DD",
"9%	c #FCFBF9",
"0%	c #7D7E7E",
"a%	c #0D0B09",
"b%	c #E4E2E2",
"c%	c #FBFBF7",
"d%	c #FDFBFA",
"e%	c #E6E2DF",
"f%	c #DFD9D5",
"g%	c #FAF9F7",
"h%	c #FBFBFA",
"i%	c #000000",
"j%	c #D4D2D0",
"k%	c #DDD9D3",
"l%	c #FAF7F6",
"m%	c #DAD4D0",
"n%	c #FCFCF8",
"o%	c #F1F2F0",
"p%	c #222220",
"q%	c #0E0E0C",
"r%	c #FAFAF6",
"s%	c #D6D2CE",
"t%	c #FFFFFE",
"u%	c #E3DBD7",
"v%	c #FDFAFB",
"w%	c #737273",
"x%	c #B5B4B5",
"y%	c #F8F7F6",
"z%	c #FCFBFA",
"A%	c #E2DFDD",
"B%	c #F9F8F4",
"C%	c #DCD7D3",
"D%	c #F8F8F6",
"E%	c #FDFCFB",
"F%	c #FCFCFB",
"G%	c #E6E5E4",
"H%	c #F9F9F9",
"I%	c #DBD6D2",
"J%	c #FCFAF7",
"K%	c #D5D0CC",
"L%	c #F4F1F0",
"M%	c #535352",
"N%	c #3A3A3C",
"O%	c #D0CCC6",
"P%	c #E0DDD7",
"Q%	c #FDFBFB",
"R%	c #F5F3F0",
"S%	c #8A8988",
"T%	c #0F0F0E",
"U%	c #F2EFEB",
"V%	c #F3EFEC",
"W%	c #F0ECEA",
"X%	c #DFDBD5",
"Y%	c #FBFAF7",
"Z%	c #DAD5D1",
"`%	c #F4F2EE",
" &	c #F9F6F6",
".&	c #F1EDEC",
"+&	c #D7D2CF",
"@&	c #EEECE9",
"#&	c #F2EFEF",
"$&	c #D8D3D0",
"%&	c #D0CAC5",
"&&	c #E8E5E3",
"*&	c #575654",
"=&	c #454644",
"-&	c #FFFEFB",
";&	c #FEFAF9",
">&	c #EFEBE9",
",&	c #CAC2BC",
"'&	c #D7D1C9",
")&	c #FFFEFE",
"!&	c #DBD5D2",
"~&	c #D6CFCC",
"{&	c #F5F2F1",
"]&	c #BEBCBE",
"^&	c #C2C2C3",
"/&	c #FBFAF9",
"(&	c #CFCAC5",
"_&	c #FDFBF8",
":&	c #CEC7C1",
"<&	c #FFFCFC",
"[&	c #F1F1F2",
"}&	c #DCDEDF",
"|&	c #E2E3E5",
"1&	c #EFEFEF",
"2&	c #C3BBB6",
"3&	c #E4DFDB",
"4&	c #E0DFDA",
"5&	c #E2DFDA",
"6&	c #E3DEDB",
"7&	c #E4E1DE",
"8&	c #E6E1DD",
"9&	c #DCD7D4",
"0&	c #E2DEDA",
"a&	c #E2DEDB",
"b&	c #E5E3DE",
"c&	c #D8D1CE",
"d&	c #EFECE9",
"e&	c #DFDAD7",
"f&	c #E2E0DB",
"g&	c #E3E0DB",
"h&	c #E8E6E0",
"i&	c #FDF9F4",
"j&	c #F3F0EB",
"k&	c #FEFAF6",
"l&	c #EDEBE6",
"m&	c #E4DFDC",
"n&	c #E0DBD6",
"o&	c #E2DDDB",
"p&	c #E3DFDC",
"q&	c #F8F3ED",
"r&	c #F9F4F0",
"s&	c #E6E4E0",
"t&	c #E2DFD8",
"u&	c #E7E2E0",
"v&	c #D0CBC5",
"w&	c #FDFDFB",
"x&	c #E2DDD9",
"y&	c #E2DED9",
"z&	c #E1DDD8",
"A&	c #DFDBD6",
"B&	c #EFEBE8",
"C&	c #FAF8F7",
"D&	c #EAE6E3",
"E&	c #DEDBD6",
"F&	c #F7F6F4",
"G&	c #E0DCD7",
"H&	c #DEDAD6",
"I&	c #DFDCD7",
"J&	c #E0DBD7",
"K&	c #F1EEEC",
". . . . . . . . . . . . . . . . . . . . . . . . . . . . . . . . . . . . . . . . . . . . . . . . ",
". . . . . . . . . . . . . . . . . . . . . . . . . . . . . . . . . . . . . . . . . . . . . . . . ",
". . . . . . . . . . . . . . . . . . . . . . . . . . . . . . . . . + @ @ @ . . # @ @ @ # . . . . ",
". . . . . . . . . . . . . . . . . . . . . . . . . . . . . . . . . $ % & * = + - ; > , ' # . . . ",
". . . . . . . . . . . . . . . . . . . . . . . . . . . . . . . . ) ! ~ { ] ^ ~ / ~ ( _ : < [ . . ",
". . . . . . . . . . . } | | | | | | | | | 1 . . . . . . . . . . 2 3 4 5 6 7 8 9 0 a b c + . . . ",
". . . . . . . . d . e f g g g g g g g g h i . . . . . . . . . . 2 j k l 6 m 8 n 0 a o p + . . . ",
". . . . . . . . q . r s t t t t t t t u v w x . . . . . . . . . 2 j k l 6 m 8 n 0 a o p + . . . ",
". . . . . . . . . y z v v v v v v v v v v s A B . . . . . . . . 2 j k l 6 m 8 n 0 a o p + . . . ",
". . . . . . . . . C D v v v v v v v v v v t E F G . . . . . . . 2 j k l 6 m 8 n 0 a o p + . . . ",
". . . . . . . . H I v v v v v v v v v v v v s A B G . . . . . . 2 j k l 6 m 8 n 0 a o p + . . . ",
". . . . . . B . J D v v v v v s v v v v v v u K L L . . . . . . 2 j k l 6 m 8 n 0 a o p + . . . ",
". . . . . . G e M t v v v v v N O v v v v v v P Q . R . . . . . 2 j k l 6 m 8 n 0 a o p + . . . ",
". . . . . G . S T v v v v v U V W s v v v v v v E R q d . . . . 2 j k l 6 m 8 n 0 a o p + . . . ",
". . . . . X Y Z ` v v v v v D  .. ..v v v v v v P +.. @.. . . . 2 j k l 6 m 8 n 0 a o p + . . . ",
". . . . #.. $.%.v v v v v v &.*.. =.-.v v v v v v ;.>.. . . . . 2 j k l 6 m 8 n ,.'.).p + . . . ",
". . . . !.} ~.v v v v v v U {.. #.. ].u v v v v v s ^.. q . . . 2 j k l 6 m 8 /.(._.:.p + . . . ",
". . . @.. Q v v v v v v s E <.[.}.|.1.D s v v v v v 2.3.. . . . 2 4.5.6.7.m 8.9.0.a.b.c.d.. . . ",
". . d . e.f.v v v v v v U g.. L d h.. E t v v v v v D i.. . . . 2 j.k.l.m.$ n.o.p.q.r.s.d.. . . ",
". . d . t.u.v v v v v v v.w.x.y.z.y.A.B.v v v v v v v f.C.. . . D.E.F.G.H.I.n.J.K.L.M.N.O.. . . ",
". . . P.Q.v v v v v v v t v R.v v v v v v v v v v v S.D T.. d . U.V.W.X.Y.Z.`. +.+++@+#+d.. . . ",
". . . $+D v v v v v v v v %+&+&+&+&+&+S.v v v v v v v t *+=+@.. -+;+>+,+'+)+!+~+{+]+^+/+O.. . . ",
". . (+_+v v v :+T s S.<+<+<+<+<+<+<+<+<+<+[+v s D s v &+U }+. R U.|+1+1+2+3+4+5+6+7+8+9+0+. . . ",
". q a+D S.s b+c+d+D u.g v.v.e+f+g+h+v.v.h T v s i+j+D v k+l+m+n+o+p+q+r+s+t+u+v+w+x+y+z+O.. . . ",
". L A+t v v v v B+C+D+E+F+G+F+H+I+J+K+L+M+N+O+P+Q+v s v %+s R+. S+T+U+V+W+X+4+Y+Z+`+8+ @d.. . . ",
". .@D &+v v v v D +@@@. R R R R R R R R #@. $@:+s v v v v %+%@&@+ *@=@-@;@>@,@'@)@!@~@{@2 . . . ",
". r v v v v v v U ]@n+. . . . . . . . . d . ^@/@v v v v v v S.(@U._@:@1+<@[@}@Y+|@1@2@ @d.. . . ",
". 3@4@5@6@6@6@6@7@8@. d . . . . . . . . . n+. 9@5@0@6@6@6@5@0@a@D.b@c@d@e@f@g@h@i@j@k@l@O.. . . ",
". . . . . . . . . . . . . . . . . . . . . . . . . . . . . . . . m@n@o@p@q@r@g@h@s@t@u@l@v@. . . ",
". . . . . . . . . . . . . . . . . . . . . . . . . . . . . . . . U.w@U+x@y@z@4+Y+A@B@C@D@d.. . . ",
". . . . . . . . . . . . . . . . . . . . . . . . . . . . . . . . E@F@G@H@I@J@K@L@M@N@O@P@+ . . . ",
". . . . . . . . . . . . . . . . . . . . . . . . . . . . . . . . . Q@R@S@S@O.T@U@V@S@V@W@. . . . ",
". . X@. . . . . . . . . . . . . . . . . Y@. Y@. . . . . . . T@@ + Z@Z@Z@Z@@ @ Z@Z@Z@Z@Z@@ @ @ . ",
". `@ #.#+#@###$#%#&#*#=#-#;#%#$#>#,#'#)#!#%#~#{#]#^#/#(#%#_#:#<#[#<#<#<#<#<#<#<#<#<#<#<#<#<#<#d ",
". }#|#1#2#3#4#5#6#5#7#|#8#9#0#9#a#b#|#c#d#e#5#f#9#g#h#5#i#5#~ ~ j#k#~ l#m#~ ~ ~ ~ ~ ~ ~ ~ ~ n#o#",
". p#|#q#r#s#t#u#w+u#v#w#x#y#z#A#B#C#D#E#F#G#F#H#I#J#K#L#M#N#O#P#Q#R#S#T#U#V#W#[.X#Y#Y#Y#Z#`# $o#",
". .$+$@$#$$$%$&$*$=$-$;$>$,$'$)$!$~${$]$^$/$($_$:$<$[$}$|$1$2$3$4$5$6$7$8$9$0$a$b$c$c$c$b$d$e$f$",
". ~ ~ ~ ~ ~ ~ ~ ~ ~ ~ ~ ~ ~ ~ ~ ~ ~ ~ ~ ~ ~ ~ ~ ~ ~ ~ ~ ~ ~ ~ ~ ~ ~ ~ ~ ~ ~ ~ ~ ~ ~ ~ ~ ~ ~ ~ . ",
". g$h$i$i$i$i$j$i$j$i$k$i$l$m$n$n$m$k$i$j$#.j$i$k$i$i$j$i$l$o$p$o$q$r$s$s$s$t$u$u$o#v$v$w$o$s$. ",
". @ v$x$y$z$v$A$x$B$y$y$x$C$D$O.E$F$C$y$y$G$p$q$p$H$y$y$C$I$@ W@@ v$x$y$J$o$K$K$L$M$N$O$P$Q$+ . ",
". R$S$T$U$V$W$X$Y$Z$T$T$T$`$ %.%d +%Z$T$T$@%#%$%%%&%*%T$=%-%;%>%,%`$T$'%)%!%~ ~ ~%{%U$T$]%^%@ . ",
". /%~ ~ ~ ~ ~ ~ ~ ~ ~ ~ ~ ~ (%_%:%~ ~ ~ ~ ~ <%~ [%~ ~ ~ ~ ~ }%|%1%~ ~ ~ ~ 2%3%4%5%~ ~ ~ ~ 6%7%. ",
". 8%~ 9%~ ~ 0%a%b%h.~ c%d%~ e%O.f%g%~ h%_ ~ i%~ i%j%~ >%~ _ k%l%m%~ n%o%~ p%i%i%q%~ ~ r%~ s%t%. ",
". u%~ v%~ ~ w%i%i%x%~ y%z%~ A%B%C%D%~ E%F%~ i%~ i%G%~ >%~ H%I%J%K%~ d%L%~ M%i%i%N%~ ~ l%~ O%~ . ",
". P%Q%o$R%~ S%T%U%~ d V%W%7%X%Y%Z%`% &.&q$~ i%~ i%+&%%@&Q$#&$&J%%&~ @&&&~ *&i%i%=&-&;&>&~ ,&~ . ",
". '&~ ~ ~ ~ ~ ~ ~ ~ ~ ~ )&~ !&T@~&{&~ ~ ~ ~ ]&~ ^&~ ~ ~ ~ /&(&_&:&~ 8 <&~ [&}&|&1&~ ~ )&~ 2&~ . ",
". 3&4&5&6&7&8&!&9&0&6&a&5&b&c&T@d&e&f&g&6&h&i&j&k&l&m&a&g&n&n&t%<#6&5&o&p&q&t%#%r&s&6&t&u&v&w&. ",
". + x&y&1%1%z&z&1%1%1%1%y&A&B&# C&D&z&1%1%1%E&z&E&z&1%1%6%S$. F&f$0&1%1%y&G&H&H&I&1%1%y&J&K&. . "};
