/* XPM */
static char * aaxplayer_xpm[] = {
"48 48 471 2",
"  	c None",
". 	c #989899",
"+ 	c #808080",
"@ 	c #818181",
"# 	c #828282",
"$ 	c #7D7D7F",
"% 	c #CBCAC8",
"& 	c #CBCBCA",
"* 	c #7A7A7A",
"= 	c #838383",
"- 	c #888888",
"; 	c #FEFEFE",
"> 	c #FFFFFF",
", 	c #F4F4F4",
"' 	c #DFDFDF",
") 	c #FDFDFD",
"! 	c #AAAAAA",
"~ 	c #EDEDED",
"{ 	c #F7F7F7",
"] 	c #F0F0F0",
"^ 	c #D6D6D6",
"/ 	c #F2F2F2",
"( 	c #E0E0E0",
"_ 	c #FCFCFC",
": 	c #E2E2E2",
"< 	c #EEEEEE",
"[ 	c #AFAFAF",
"} 	c #F8F8F8",
"| 	c #F1F1F1",
"1 	c #D7D7D7",
"2 	c #DEDEDE",
"3 	c #E3E3E3",
"4 	c #ECECEC",
"5 	c #D6D4D2",
"6 	c #E9E9E9",
"7 	c #F2EEEA",
"8 	c #EDEAE7",
"9 	c #ECE9E7",
"0 	c #EDE9E7",
"a 	c #EEEBE8",
"b 	c #E0DDD9",
"c 	c #F3F3F2",
"d 	c #F8F9F9",
"e 	c #F5F2EC",
"f 	c #FFFFFD",
"g 	c #FBFAFA",
"h 	c #DED8D3",
"i 	c #F6F5F5",
"j 	c #FEFCFD",
"k 	c #F6F4F6",
"l 	c #E4E2E4",
"m 	c #E6E3E5",
"n 	c #F0EEF0",
"o 	c #E3E0DC",
"p 	c #FEFEFF",
"q 	c #FDFCFC",
"r 	c #D8D3CC",
"s 	c #F6F7F6",
"t 	c #FFFCFF",
"u 	c #FFF5FF",
"v 	c #F4E2F3",
"w 	c #F6E4F4",
"x 	c #F2EFF1",
"y 	c #BCAFBB",
"z 	c #E2DED9",
"A 	c #FEFEFD",
"B 	c #6B6B6B",
"C 	c #D0D0CF",
"D 	c #FEFEFC",
"E 	c #FCFBFC",
"F 	c #D7D0CB",
"G 	c #00D900",
"H 	c #01DF17",
"I 	c #00DC12",
"J 	c #00DE12",
"K 	c #00E20A",
"L 	c #F6B1F2",
"M 	c #E1DDD8",
"N 	c #FEFFFD",
"O 	c #FDFDFC",
"P 	c #FCFBFA",
"Q 	c #000000",
"R 	c #4B4B4B",
"S 	c #B9B9B9",
"T 	c #FFFEFD",
"U 	c #FCFBFB",
"V 	c #FDFBFC",
"W 	c #FEFDFC",
"X 	c #FFFEFE",
"Y 	c #FCFCFB",
"Z 	c #D4CEC8",
"` 	c #F6F6F6",
" .	c #F1F2F1",
"..	c #D6D7D6",
"+.	c #00D100",
"@.	c #00DB00",
"#.	c #00DD00",
"$.	c #00DF00",
"%.	c #FFB1FF",
"&.	c #DFDBD6",
"*.	c #FDFCFB",
"=.	c #111010",
"-.	c #212121",
";.	c #E3E4E2",
">.	c #FDFBFB",
",.	c #DACCCD",
"'.	c #FFF9FF",
").	c #FFF3FF",
"!.	c #F3D8F0",
"~.	c #E6DFE5",
"{.	c #BDF5C2",
"].	c #DEF2E1",
"^.	c #CCE2D1",
"/.	c #C0EBC4",
"(.	c #D2B0CF",
"_.	c #DED8D5",
":.	c #FDFCFD",
"<.	c #FBFAF9",
"[.	c #545555",
"}.	c #FCFCFD",
"|.	c #FEFDFD",
"1.	c #CFC8C4",
"2.	c #7AEB84",
"3.	c #7FE989",
"4.	c #73DA7F",
"5.	c #5DEB6A",
"6.	c #F0E0F1",
"7.	c #69EB74",
"8.	c #93EA9D",
"9.	c #87E191",
"0.	c #86E190",
"a.	c #7DE886",
"b.	c #DCB0D8",
"c.	c #DDD9D3",
"d.	c #FDFAFB",
"e.	c #FBF9F8",
"f.	c #FAF9F8",
"g.	c #FAF9F7",
"h.	c #F9F6F5",
"i.	c #100F0F",
"j.	c #2F2E2E",
"k.	c #8B8889",
"l.	c #E1DFDF",
"m.	c #FFFFFE",
"n.	c #FAFAF7",
"o.	c #FBF9F9",
"p.	c #FFFAFF",
"q.	c #C0C5B4",
"r.	c #00DA00",
"s.	c #00E300",
"t.	c #FAE0F6",
"u.	c #00E000",
"v.	c #DBD7D1",
"w.	c #F9F8F6",
"x.	c #F8F7F5",
"y.	c #F6F4F4",
"z.	c #F8F6F4",
"A.	c #F8F5F3",
"B.	c #F7F5F3",
"C.	c #F4F2F1",
"D.	c #272627",
"E.	c #B0AEAD",
"F.	c #FAF7F6",
"G.	c #F7F5F4",
"H.	c #F9F5F3",
"I.	c #F7F6F4",
"J.	c #F8F7F6",
"K.	c #FBF9F7",
"L.	c #FFF8FC",
"M.	c #C7C5BA",
"N.	c #2DE43C",
"O.	c #33E243",
"P.	c #2FDB3F",
"Q.	c #07E715",
"R.	c #F6E0F5",
"S.	c #04E110",
"T.	c #35E347",
"U.	c #30DE3F",
"V.	c #2CE537",
"W.	c #ECB0E9",
"X.	c #DAD6D2",
"Y.	c #FCFAF8",
"Z.	c #F4F4F0",
"`.	c #F6F3EF",
" +	c #F5F2F0",
".+	c #F3F2F0",
"++	c #F3F0F0",
"@+	c #F5F1F0",
"#+	c #F4EDEB",
"$+	c #32302F",
"%+	c #ADA9A9",
"&+	c #FCF7F5",
"*+	c #F5F1EE",
"=+	c #F4F0EE",
"-+	c #F5F0EE",
";+	c #F5F0F0",
">+	c #F3F1F0",
",+	c #F6F3F1",
"'+	c #F4F2F2",
")+	c #F9F7F5",
"!+	c #FAF5F7",
"~+	c #E2C4D4",
"{+	c #FFF8FF",
"]+	c #FFF4FF",
"^+	c #FFDBFF",
"/+	c #FDF2FE",
"(+	c #FAE0F8",
"_+	c #FFFEFF",
":+	c #FFE4FF",
"<+	c #FAEFFB",
"[+	c #C8B0C7",
"}+	c #D9D4CF",
"|+	c #F9F8F8",
"1+	c #F6F5F3",
"2+	c #F4F2F0",
"3+	c #F4F1EF",
"4+	c #F3F0EE",
"5+	c #F3F0ED",
"6+	c #F1EFEC",
"7+	c #FAF8F5",
"8+	c #FFFFFC",
"9+	c #F1F0ED",
"0+	c #F3F1EE",
"a+	c #F3F1ED",
"b+	c #F5F3F1",
"c+	c #F5F4F2",
"d+	c #FEF5FB",
"e+	c #B8BFAB",
"f+	c #00E200",
"g+	c #F7E0F6",
"h+	c #00D200",
"i+	c #FFB1FD",
"j+	c #DAD5CF",
"k+	c #F4F0EF",
"l+	c #F1EDEB",
"m+	c #EFECEA",
"n+	c #F0ECE9",
"o+	c #EEECE9",
"p+	c #F0ECE7",
"q+	c #EEECE7",
"r+	c #F1ECE8",
"s+	c #EEEAE7",
"t+	c #EEEAE9",
"u+	c #EFEDEB",
"v+	c #F6F2F0",
"w+	c #FCF4F8",
"x+	c #B8BBAA",
"y+	c #00E400",
"z+	c #F8E0F7",
"A+	c #00D500",
"B+	c #00DC00",
"C+	c #00E100",
"D+	c #FEB2FA",
"E+	c #D2CAC3",
"F+	c #DFDBD7",
"G+	c #E5DADB",
"H+	c #FFD8FC",
"I+	c #FFF2FF",
"J+	c #F6DBF9",
"K+	c #E5F0EB",
"L+	c #FDE0FC",
"M+	c #E5FAEC",
"N+	c #FFF6FF",
"O+	c #FCE3FE",
"P+	c #FAE5FC",
"Q+	c #E5EDEA",
"R+	c #CEB0CC",
"S+	c #F2EAE4",
"T+	c #E4DBD3",
"U+	c #E4D9D2",
"V+	c #E4D9D1",
"W+	c #D5D1C4",
"X+	c #FED6F1",
"Y+	c #42DC3F",
"Z+	c #F9E0F8",
"`+	c #00D600",
" @	c #00DE00",
".@	c #F8B2F6",
"+@	c #39D437",
"@@	c #00DC01",
"#@	c #00DC03",
"$@	c #EFD1EC",
"%@	c #00DC04",
"&@	c #F19FEE",
"*@	c #FFECFF",
"=@	c #76DA72",
"-@	c #3DDF42",
";@	c #47E04C",
">@	c #47DF4E",
",@	c #26E225",
"'@	c #E5D1E4",
")@	c #FFFBFF",
"!@	c #23DC1E",
"~@	c #47E04E",
"{@	c #45E04B",
"]@	c #41E040",
"^@	c #EFBEE9",
"/@	c #F7F7F5",
"(@	c #FDFCFA",
"_@	c #FAFBF8",
":@	c #FDFCF9",
"<@	c #FCFBF9",
"[@	c #E6E4E0",
"}@	c #FDFDFB",
"|@	c #FFFCFD",
"1@	c #FFFDFF",
"2@	c #E2DDD7",
"3@	c #FBFBFC",
"4@	c #D8D8D7",
"5@	c #DEDEDD",
"6@	c #FDFEFC",
"7@	c #E8E4E2",
"8@	c #FEFFFF",
"9@	c #FEFFFE",
"0@	c #B8BAB8",
"a@	c #C6C6C6",
"b@	c #E4E4E4",
"c@	c #DBD7D2",
"d@	c #6A6969",
"e@	c #DDDDDC",
"f@	c #6E6E6E",
"g@	c #767476",
"h@	c #E6E2DF",
"i@	c #F3F1F1",
"j@	c #767676",
"k@	c #D9D3CE",
"l@	c #F9F8F7",
"m@	c #838181",
"n@	c #F4F3F3",
"o@	c #898989",
"p@	c #8D8C8C",
"q@	c #E4E0DD",
"r@	c #F2EFEE",
"s@	c #8B8B8B",
"t@	c #636462",
"u@	c #FCFDFB",
"v@	c #D6D1CB",
"w@	c #F8F7F7",
"x@	c #FFFCFB",
"y@	c #FBFCFA",
"z@	c #FBFAFB",
"A@	c #FDFBFA",
"B@	c #818080",
"C@	c #898988",
"D@	c #8C8D8D",
"E@	c #FCFAFB",
"F@	c #E1DFDB",
"G@	c #EFECEC",
"H@	c #646261",
"I@	c #FBFCFB",
"J@	c #D3CEC8",
"K@	c #F6F6F3",
"L@	c #F8F6F5",
"M@	c #7D7B7B",
"N@	c #EAE9E6",
"O@	c #838584",
"P@	c #8A8B8B",
"Q@	c #F7F6F6",
"R@	c #F6F8F5",
"S@	c #F8F5F5",
"T@	c #E0DCD8",
"U@	c #F8F8F5",
"V@	c #8A8A8C",
"W@	c #5F5E5F",
"X@	c #F7F7F4",
"Y@	c #F6F6F5",
"Z@	c #D0C9C3",
"`@	c #F7F5F2",
" #	c #F5F1EF",
".#	c #F4F2EE",
"+#	c #F5F0EF",
"@#	c #FFFBF9",
"##	c #7F7D7D",
"$#	c #DBD7D5",
"%#	c #888684",
"&#	c #90918F",
"*#	c #FEF9F7",
"=#	c #F5F3EF",
"-#	c #E9E6E2",
";#	c #F5F2EE",
">#	c #FFFAF8",
",#	c #868786",
"'#	c #5A5959",
")#	c #FFFCFA",
"!#	c #F6EFEF",
"~#	c #F5F2F1",
"{#	c #CDC7C1",
"]#	c #F6F4F1",
"^#	c #F1EEEB",
"/#	c #F1EEEA",
"(#	c #F0EEEA",
"_#	c #F6F4F0",
":#	c #EFEEEA",
"<#	c #F2EEEE",
"[#	c #C8C2BA",
"}#	c #E7E5E2",
"|#	c #F0EFED",
"1#	c #EFEDEA",
"2#	c #F5F3F0",
"3#	c #F0EEEB",
"4#	c #F1EDEC",
"5#	c #F0F0EC",
"6#	c #C6C0B7",
"7#	c #E6E3DF",
"8#	c #FEFCFC",
"9#	c #CDC8C2",
"0#	c #E3DFDA",
"a#	c #FEFCFB",
"b#	c #FAF8F6",
"c#	c #F6F4F3",
"d#	c #F9F9F5",
"e#	c #FEFDFB",
"f#	c #FAF8F7",
"g#	c #FAFAF8",
"h#	c #F4F4F2",
"i#	c #F8F9F6",
"j#	c #FAF9F6",
"k#	c #FEFCF9",
"l#	c #D4CFCB",
"m#	c #F2E0ED",
"n#	c #FFE5FF",
"o#	c #F0D0EA",
"p#	c #FCE2F9",
"q#	c #C9C0C6",
"r#	c #F4ECF1",
"s#	c #FFEEFF",
"t#	c #FFE7FF",
"u#	c #F6D7F1",
"v#	c #F7D7F1",
"w#	c #F4DDF0",
"x#	c #A29C9E",
"y#	c #80E288",
"z#	c #59EA68",
"A#	c #61E76F",
"B#	c #56DD66",
"C#	c #3AEC48",
"D#	c #E5D3E5",
"E#	c #38E847",
"F#	c #64EA72",
"G#	c #5AE067",
"H#	c #5BE268",
"I#	c #55E762",
"J#	c #D1A0CE",
"K#	c #28D523",
"L#	c #00D700",
"M#	c #FCE1F8",
"N#	c #00D000",
"O#	c #00D800",
"P#	c #86F08A",
"Q#	c #69FF77",
"R#	c #6FFF7D",
"S#	c #63FC72",
"T#	c #48FF54",
"U#	c #E9D5E7",
"V#	c #4EFF59",
"W#	c #71FF81",
"X#	c #67FF73",
"Y#	c #65FF75",
"Z#	c #5DFF67",
"`#	c #DEA9DC",
" $	c #A8A3A8",
".$	c #908590",
"+$	c #958695",
"@$	c #978896",
"#$	c #898589",
"$$	c #CFC3CB",
"%$	c #D7CBD5",
"&$	c #858183",
"*$	c #968695",
"=$	c #968795",
"-$	c #8E8C8E",
"                                                                                                ",
"                                                                                                ",
"                                                                                                ",
"                                                            . + @ # $ %       & * @ # = -       ",
"                                                            ; > > , > '       > > > ) > > !     ",
"                                                            ~ { ] ^ / (       > _ / ( : < [     ",
"                                                            ~ } | 1 / 2       > _ , : 3 < [     ",
"                                                            ~ } | 1 / 2       > _ , : 3 < [     ",
"                                                            ~ } | 1 / 2       > _ , : 3 < [     ",
"                                                            ~ } | 1 / 2       > _ , : 3 < [     ",
"                                                            ~ } | 1 / 2       > _ , : 3 < [     ",
"                                                            ~ } | 1 / 2       > _ , : 3 < [     ",
"                                                            4 } | 1 / 2       > _ , : 3 < [     ",
"                                                          5 6 } | 1 / 2       > _ , : 3 < [     ",
"    7 8 9 0 0 0 0 0 0 0 0 0 0 0 0 0 0 0 0 0 0 0 0 0 0 9 a b c d | 1 / 2       > _ , : 3 < [     ",
"  e f > > > > > > > > > > > > > > > > > > > > > > > > > > g h i | 1 / 2       > j k l m n [     ",
"  o > p ; ; ; ; ; ; ; > > > > ; ; ; ; ; ; ; ; ; ; ; ; ; > q r s / 1 / 2       > t u v w x y     ",
"  z > p ; A A A A A A > B C > > > D A A A A A A A A A ; > E F s / 1 / 2       > G H I J K L     ",
"  M > N O O q q q q P > Q Q R S > > T U q q q q q q V W X Y Z `  .../ 2       > +.G @.#.$.%.    ",
"  &.> W O q *.*.*.*.P > =.Q Q Q -.;.> > *.*.*.*.*.*.q W T >.,.'.).!.).~.      > {.].^.^./.(.    ",
"  _.> ) :.Y U U U E <.> =.Q Q Q Q Q [.> _ U U U U U }.q |.t 1.2.3.4.5.6.      > 7.8.9.0.a.b.    ",
"  c.O d.<.e.f.f.f.g.h.> i.Q Q Q j.k.l.m.n.g.g.f.f.f.o.<.>.p.q.G r.@.s.t.      > +.G @.#.u.%.    ",
"  v._ w.x.y.z.A.B.B.C.> Q Q D.E.> > > F.G.B.B.B.H.G.I.J.K.L.M.N.O.P.Q.R.      > S.T.U.U.V.W.    ",
"  X.Y.G.Z.`. +.+++@+#+> $+%+> > &+*+=+-+-+;+++++.+>+,+'+)+!+~+{+]+^+/+(+      > _+{+:+:+<+[+    ",
"  }+|+1+2+3+4+4+4+5+6+7+8+> `.9+9+9+9+9+9+9+4+4+4+0+a+b+c+d+e+r.r.@.f+g+      > h+G @.#.$.i+    ",
"  j+g.k+l+m+n+o+o+o+p+q+r+s+q+p+p+p+p+p+p+o+o+o+t+n+m+u+v+w+x+@.@.@.y+z+      > A+B+@.#.C+D+    ",
"  E+F+> > > > > > > > > > > > > > > > > > > > > > > > > > G+H+p.I+J+K+L+      > M+N+O+P+Q+R+    ",
"    S+T+U+U+U+U+U+U+U+U+U+U+U+U+U+U+U+U+U+U+U+U+U+U+V+V+W+X+Y+#.B+@.y+Z+      > `+B+@. @C+.@    ",
"                                                            +@#.@@#@f+$@      > A+%@B+#.$.&@    ",
"                                                          *@=@-@;@>@,@'@      )@!@~@;@{@]@^@    ",
"    /@(@_@_@_@_@:@> > > > > > :@_@_@_@_@<@_ [@      0+}@_@|@> _+> > > > > > > _+1@_+_+_+> > 2@  ",
"    *.> m.> > > > 3@4@> > 5@6@> > > > m.> > 7@      c+> > 8@8@9@> ~ 0@a@a@S b@> 8@9@9@9@; > c@  ",
"    f.m.) O O O > d@Q e@f@Q g@> O O O O j > h@      i@> ) O O O > j@Q Q Q Q R > O O O O }.> k@  ",
"    l@T q *.*.*.> m@Q n@o@Q p@> *.*.*.q E > q@      r@> q *.*.*.> s@Q Q Q Q t@> W *.*.*.u@> v@  ",
"    w@x@y@z@U A@> B@Q ++C@Q D@> A@E@E@Y P > F@      G@> y@E@E@A@> s@Q Q Q Q H@> A@U E@I@A@> J@  ",
"    K@f.L@L@L@I.> M@Q N@O@Q P@> Q@R@x.S@/@> T@      8 >.L@L@U@Q@> V@Q Q Q Q W@> X@Y@L@x.I.> Z@  ",
"    2+`@ #.#;++#@###Q $#%#Q &#*#+#;+-+=# #> F+      -#)+,+;#;+;+>#,#Q Q Q Q '#)#!#;+ +*+~#> {#  ",
"    ]# +^#/#(#(#_#> > > > > > =#(#(#:#^#<#> &.    [#}#A.|#1#:#(#2#> > > > > > `@3#:#:#4#5#> 6#  ",
"    7#T 8#q q q _ U z@I@z@z@U _ q q q 8#W 0+9#      0#> a#P b#c#K@d#d#e#f#E Y g#h#1+i#j#k#:@l#  ",
"                                                            m#*@n#o#p#q#      r#s#t#u#v#w#x#    ",
"                                                            y#z#A#B#C#D#      > E#F#G#H#I#J#    ",
"                                                            K#L#L#G u.M#      > N#A+O#G $.%.    ",
"                                                            P#Q#R#S#T#U#      '.V#W#X#Y#Z#`#    ",
"                                                             $.$+$@$#$$$      %$&$*$*$=$-$      ",
"                                                                                                ",
"                                                                                                ",
"                                                                                                ",
"                                                                                                "};
